<svg width="754" height="398" viewBox="0 0 754 398" fill="none" xmlns="http://www.w3.org/2000/svg">
<path d="M144.295 111.085C144.295 96.5796 149.49 84.1322 159.879 73.743C170.268 63.3538 182.716 58.1592 197.222 58.1592C211.727 58.1592 224.175 63.3538 234.564 73.743C244.953 84.1322 250.148 96.5796 250.148 111.085C250.148 125.591 244.953 138.038 234.564 148.428C224.175 158.817 211.727 164.011 197.222 164.011C187.616 164.011 178.795 161.561 170.758 156.661C162.722 151.956 156.253 145.585 151.352 137.548C146.648 129.707 144.295 120.886 144.295 111.085ZM479.494 111.085C479.494 96.5796 484.689 84.1322 495.078 73.743C505.467 63.3538 517.915 58.1592 532.42 58.1592C546.926 58.1592 559.374 63.3538 569.763 73.743C580.152 84.1322 585.347 96.5796 585.347 111.085C585.347 125.591 580.152 138.038 569.763 148.428C559.374 158.817 546.926 164.011 532.42 164.011C522.815 164.011 513.994 161.561 505.957 156.661C497.92 151.956 491.452 145.585 486.551 137.548C481.847 129.707 479.494 120.886 479.494 111.085Z" fill="black" fill-opacity="0.1"/>
<path d="M377.046 224.21C451.142 224.21 519.26 233.815 581.399 253.026C643.734 272.432 701.071 300.071 753.409 335.943V397.102C734.003 382.989 710.088 369.757 681.665 357.408C653.438 345.254 622.368 334.571 588.456 325.358C554.74 316.145 519.848 308.892 483.78 303.599C447.712 298.503 412.134 295.955 377.046 295.955C330.392 295.955 283.053 300.463 235.027 309.48C187.002 318.497 142.406 330.651 101.242 345.94C60.0768 361.23 26.5569 378.284 0.681885 397.102V335.943C53.02 300.071 110.259 272.432 172.398 253.026C234.733 233.815 302.949 224.21 377.046 224.21Z" fill="black" fill-opacity="0.1"/>
<path d="M56 35.5C158.4 50.7 222.333 25.5 241.5 11" stroke="black" stroke-opacity="0.1" stroke-width="25"/>
<path d="M662 35.3236C559.324 50.4142 495.218 25.3956 476 11" stroke="black" stroke-opacity="0.1" stroke-width="25"/>
</svg>
